<svg width="98" height="98" viewBox="0 0 98 98" fill="none" xmlns="http://www.w3.org/2000/svg">
<g clip-path="url(#clip0_841_2031)">
<path d="M54.218 80.8657L77.3729 75.2104L73.648 97.1921L71.3685 98L54.218 80.8657Z" fill="#21283F"/>
<path d="M79.2577 55.8496L98 72.8599L92.8074 93.7156L71.3685 98L79.2577 55.8496Z" fill="#0E1428"/>
<path d="M48.9268 75.4394V98C46.1219 97.7105 43.3808 97.596 40.7033 97.1253C19.5319 93.4198 3.52115 76.8516 0.480733 55.5919C-3.27601 29.3004 15.3708 4.3257 41.5916 0.534327C68.2612 -3.32066 92.5336 14.0395 97.2518 40.3978C97.6721 42.7356 97.7389 45.137 97.9841 47.5098C98.0796 48.4418 97.7612 48.8457 96.7552 48.8394C89.9135 48.8075 83.0685 48.8234 76.2268 48.8171C76.0231 48.8171 75.8193 48.7535 75.6283 48.7185C74.7241 31.5301 60.751 21.8226 47.822 22.5287C34.1099 23.2794 23.0976 34.3736 22.6073 47.7993C22.1106 61.4285 32.3812 74.711 48.9268 75.4394Z" fill="#0E1428"/>
</g>
<defs>
<clipPath id="clip0_841_2031">
<rect width="98" height="98" fill="white"/>
</clipPath>
</defs>
</svg>
